<svg width="40" height="40" viewBox="0 0 40 40" fill="none" xmlns="http://www.w3.org/2000/svg">
<path d="M20.7242 7.82167C20.9442 7.44667 21.2992 7.17 21.7209 7.05833L21.7326 7.055C21.8692 7.00833 22.0259 6.98167 22.1909 6.98167C22.4859 6.98167 22.7593 7.07 22.9893 7.22L22.9843 7.21667C23.3493 7.44833 23.621 7.79833 23.7477 8.21167L23.751 8.225C23.7927 8.355 23.816 8.50667 23.816 8.66167C23.816 8.98167 23.716 9.27667 23.546 9.52L23.5493 9.515L16.5324 21.6933H21.6126H21.6609C22.4393 21.6933 23.111 22.15 23.4226 22.8117L23.4276 22.8233C23.6243 23.1433 23.7393 23.5317 23.7393 23.9467C23.7393 24.3333 23.6377 24.6967 23.461 25.0117L23.466 25H8.55369C8.54036 25 8.52536 25 8.50869 25C8.05367 25 7.64199 24.815 7.34364 24.515C7.04529 24.2233 6.86029 23.8183 6.86029 23.3683C6.86029 23.36 6.86029 23.3517 6.86029 23.345V23.3467C6.86029 23.34 6.86029 23.3317 6.86029 23.3233C6.86029 22.8733 7.04529 22.4683 7.34364 22.1767C7.64032 21.8767 8.05367 21.6917 8.50869 21.6917H8.55536H8.55369H12.7472L18.0691 12.4183L16.4507 9.52C16.284 9.28167 16.184 8.985 16.184 8.66667C16.184 8.51 16.2073 8.36 16.2523 8.21833L16.249 8.22833C16.379 7.80167 16.6507 7.45167 17.009 7.225L17.0157 7.22C17.2391 7.07167 17.5141 6.985 17.8091 6.985C17.9724 6.985 18.1308 7.01167 18.2774 7.06167L18.2674 7.05833C18.7008 7.17333 19.0558 7.45 19.2708 7.81667L19.2758 7.825L20.0008 9.115L20.7242 7.82167ZM12.0955 29.4333C11.8438 29.7933 11.4821 30.0633 11.0621 30.1967L11.0488 30.2C10.9138 30.245 10.7571 30.2717 10.5954 30.2717C10.3004 30.2717 10.0254 30.185 9.79374 30.035L9.79874 30.0383C9.42039 29.8217 9.14205 29.465 9.03371 29.0417L9.03204 29.03C8.99871 28.9 8.97871 28.75 8.97871 28.595C8.97871 28.2817 9.05871 27.9867 9.19705 27.73L9.19205 27.74L10.4021 25.7233C10.6838 25.6217 11.0105 25.5617 11.3505 25.5617C12.2772 25.5617 13.1005 26.0017 13.6222 26.685L13.6272 26.6917L12.0955 29.4333ZM31.5313 21.6933H31.5763C32.0313 21.6933 32.443 21.8783 32.7414 22.1783C33.0397 22.47 33.2247 22.875 33.2247 23.325V23.3483V23.3467V23.37C33.2247 23.82 33.0397 24.225 32.7414 24.5167C32.4447 24.8167 32.0313 25.0017 31.5763 25.0017C31.5613 25.0017 31.5446 25.0017 31.5296 25.0017H31.5313H29.1929L30.8063 27.7433C30.9313 27.9717 31.0046 28.2433 31.0046 28.5333C31.0046 28.7117 30.9763 28.885 30.9246 29.0467L30.928 29.035C30.7979 29.4617 30.5263 29.8117 30.1679 30.0383L30.1613 30.0433C29.9379 30.19 29.6629 30.2783 29.3696 30.2783C29.2062 30.2783 29.0495 30.2517 28.9029 30.2017L28.9129 30.205C28.4795 30.09 28.1245 29.8133 27.9095 29.4467L27.9045 29.4383L21.8559 18.875C21.4009 18.16 21.1309 17.2883 21.1309 16.355C21.1309 16.0483 21.1592 15.75 21.2159 15.4583L21.2109 15.4883C21.3626 14.6167 21.7976 13.865 22.4159 13.315L22.4193 13.3117L27.2578 21.6983L31.5313 21.6933ZM19.9992 0.00166667H20.1275C23.7693 0.00166667 27.1761 1.005 30.0879 2.75167L29.9996 2.70333C33.0397 4.495 35.5065 6.96167 37.2466 9.90667L37.2982 10C38.995 12.8233 40 16.23 40 19.8717V20.0067V20V20.1283C40 23.77 38.9966 27.1767 37.2499 30.0883L37.2982 30C35.5065 33.04 33.0397 35.5067 30.0946 37.2467L30.0013 37.2983C27.1778 38.995 23.771 40 20.1292 40C20.0842 40 20.0392 40 19.9942 40H20.0008C19.9625 40 19.9175 40 19.8725 40C16.2307 40 12.8239 38.9967 9.91208 37.25L10.0004 37.2983C6.96029 35.5067 4.49352 33.04 2.75345 30.0933L2.70178 30C1.00504 27.1767 0 23.77 0 20.1283C0 20.0833 0 20.0383 0 19.9933V20C0 19.9617 0 19.9167 0 19.8717C0 16.23 1.00338 12.8233 2.75011 9.91167L2.70178 10C4.49352 6.96 6.96029 4.49333 9.90541 2.75333L9.99875 2.70167C12.8222 1.005 16.229 0 19.8708 0H20.0058H19.9992V0.00166667ZM37.4199 20C37.4199 19.955 37.4199 19.9033 37.4199 19.85C37.4199 16.6817 36.5532 13.715 35.0431 11.175L35.0865 11.2533C33.5297 8.60667 31.3746 6.465 28.7995 4.96833L28.7162 4.92333C26.2411 3.455 23.261 2.58667 20.0775 2.58667C20.0358 2.58667 19.9942 2.58667 19.9525 2.58667H19.9592C19.9225 2.58667 19.8792 2.58667 19.8342 2.58667C16.669 2.58667 13.7056 3.455 11.1721 4.96833L11.2488 4.925C8.60203 6.48167 6.46027 8.635 4.96354 11.21L4.91854 11.2933C3.44848 13.7683 2.58011 16.7517 2.58011 19.9367V20.045V20.04V20.165C2.58011 23.33 3.44848 26.2933 4.96187 28.8267L4.91854 28.75C6.47527 31.3967 8.63036 33.5383 11.2055 35.035L11.2888 35.08C13.7639 36.55 16.7474 37.4183 19.9325 37.4183H20.0442H20.0392H20.1642C23.3293 37.4183 26.2928 36.55 28.8262 35.0367L28.7495 35.08C31.3996 33.5233 33.5431 31.3683 35.0415 28.7917L35.0865 28.7083C36.5565 26.24 37.4249 23.2633 37.4249 20.085C37.4249 20.055 37.4249 20.0233 37.4249 19.9933V19.9983L37.4199 20Z" fill="#F2F5FF"/>
</svg>
