<svg width="1070" height="1080" viewBox="0 0 1070 1080" fill="none" xmlns="http://www.w3.org/2000/svg">
<rect x="786.679" y="1201.46" width="184" height="181" transform="rotate(-105.614 786.679 1201.46)" fill="#0C0C0C"/>
<rect x="663.786" y="765.45" width="184" height="180" transform="rotate(-105.614 663.786 765.45)" fill="#0C0C0C"/>
<rect x="226.924" y="179.408" width="184" height="180" transform="rotate(-105.614 226.924 179.408)" fill="#0C0C0C"/>
<circle cx="130.892" cy="348.497" r="18" transform="rotate(-105.614 130.892 348.497)" fill="#0C0C0C"/>
<rect x="200.263" y="894.449" width="183.733" height="180.452" transform="rotate(-105.162 200.263 894.449)" fill="#0C0C0C"/>
<rect x="716.451" y="40.2385" width="183.733" height="180.452" transform="rotate(-105.162 716.451 40.2385)" fill="#0C0C0C"/>
<rect x="498.827" y="1048.29" width="184" height="180" transform="rotate(-105.614 498.827 1048.29)" fill="#0C0C0C"/>
<rect x="963.039" y="918.553" width="184" height="181" transform="rotate(-105.614 963.039 918.553)" fill="#0C0C0C"/>
<rect x="526.178" y="332.511" width="184" height="181" transform="rotate(-105.614 526.178 332.511)" fill="#0C0C0C"/>
<rect x="840.146" y="482.54" width="184" height="180" transform="rotate(-105.614 840.146 482.54)" fill="#0C0C0C"/>
<rect x="974.286" y="208.315" width="184" height="181" transform="rotate(-105.614 974.286 208.315)" fill="#0C0C0C"/>
<rect x="378.901" y="612.852" width="183.733" height="180.452" transform="rotate(-105.162 378.901 612.852)" fill="#0C0C0C"/>
<rect x="348.584" y="1090.28" width="184" height="143" transform="rotate(-105.614 348.584 1090.28)" fill="#0C0C0C"/>
<rect x="813.759" y="960.273" width="184" height="143" transform="rotate(-105.614 813.759 960.273)" fill="#0C0C0C"/>
<rect x="376.898" y="374.231" width="184" height="143" transform="rotate(-105.614 376.898 374.231)" fill="#0C0C0C"/>
<rect x="689.903" y="524.529" width="184" height="143" transform="rotate(-105.614 689.903 524.529)" fill="#0C0C0C"/>
<rect x="825.006" y="250.035" width="184" height="143" transform="rotate(-105.614 825.006 250.035)" fill="#0C0C0C"/>
<rect x="228.797" y="653.527" width="183.733" height="143.049" transform="rotate(-105.162 228.797 653.527)" fill="#0C0C0C"/>
<rect x="517.012" y="1276.83" width="184" height="268" transform="rotate(-105.614 517.012 1276.83)" fill="#0C0C0C"/>
<rect x="981.224" y="1147.09" width="184" height="268" transform="rotate(-105.614 981.224 1147.09)" fill="#0C0C0C"/>
<rect x="858.331" y="711.08" width="184" height="268" transform="rotate(-105.614 858.331 711.08)" fill="#0C0C0C"/>
<rect x="421.47" y="125.038" width="184" height="268" transform="rotate(-105.614 421.47 125.038)" fill="#0C0C0C"/>
<rect x="395.334" y="841.589" width="183.733" height="225.733" transform="rotate(-105.162 395.334 841.589)" fill="#0C0C0C"/>
<rect x="261.906" y="1114.5" width="184" height="59" transform="rotate(-105.614 261.906 1114.5)" fill="#0C0C0C"/>
<rect x="726.118" y="984.767" width="184" height="59" transform="rotate(-105.614 726.118 984.767)" fill="#0C0C0C"/>
<rect x="289.256" y="398.725" width="184" height="59" transform="rotate(-105.614 289.256 398.725)" fill="#0C0C0C"/>
<rect x="603.225" y="548.754" width="184" height="59" transform="rotate(-105.614 603.225 548.754)" fill="#0C0C0C"/>
<rect x="737.365" y="274.529" width="184" height="59" transform="rotate(-105.614 737.365 274.529)" fill="#0C0C0C"/>
<rect x="25.1875" y="289.781" width="184" height="59" transform="rotate(-15.6143 25.1875 289.781)" fill="#0C0C0C"/>
<rect x="55.0643" y="396.685" width="184" height="59" transform="rotate(-15.6143 55.0643 396.685)" fill="#0C0C0C"/>
<rect x="141.395" y="677.211" width="183.733" height="59.057" transform="rotate(-105.162 141.395 677.211)" fill="#0C0C0C"/>
<rect x="17.651" y="262.814" width="25" height="28" transform="rotate(-105.614 17.651 262.814)" fill="#0C0C0C"/>
<rect x="6.72901" y="227.449" width="25" height="28" transform="rotate(-105.614 6.72901 227.449)" fill="#0C0C0C"/>
<rect x="57.138" y="251.779" width="25" height="27" transform="rotate(-105.614 57.138 251.779)" fill="#0C0C0C"/>
<rect x="46.2159" y="216.414" width="25" height="28" transform="rotate(-105.614 46.2159 216.414)" fill="#0C0C0C"/>
<rect x="91.8094" y="242.089" width="25" height="28" transform="rotate(-105.614 91.8094 242.089)" fill="#0C0C0C"/>
<rect x="81.8505" y="206.455" width="25" height="27" transform="rotate(-105.614 81.8505 206.455)" fill="#0C0C0C"/>
<rect x="131.296" y="231.054" width="25" height="28" transform="rotate(-105.614 131.296 231.054)" fill="#0C0C0C"/>
<rect x="120.374" y="195.688" width="25" height="28" transform="rotate(-105.614 120.374 195.688)" fill="#0C0C0C"/>
<rect x="167.894" y="220.826" width="25" height="28" transform="rotate(-105.614 167.894 220.826)" fill="#0C0C0C"/>
<rect x="156.972" y="185.46" width="25" height="28" transform="rotate(-105.614 156.972 185.46)" fill="#0C0C0C"/>
<rect x="1048.53" y="422.658" width="184" height="180" transform="rotate(-105.614 1048.53 422.658)" fill="#0C0C0C"/>
<path d="M761.5 82.5L786 170L821.5 276L968 238.5L1033 443L919 482" stroke="#4D4949" stroke-width="5"/>
<path d="M755 27C747.27 27 741 33.27 741 41C741 51.5 755 67 755 67C755 67 769 51.5 769 41C769 33.27 762.73 27 755 27ZM755 46C752.24 46 750 43.76 750 41C750 38.24 752.24 36 755 36C757.76 36 760 38.24 760 41C760 43.76 757.76 46 755 46Z" fill="#4C4949"/>
</svg>
