<svg width="40" height="40" fill="none" xmlns="http://www.w3.org/2000/svg"><path d="M20.724 7.822c.22-.375.575-.652.997-.764l.012-.003a1.456 1.456 0 011.257.165l-.006-.003c.365.231.637.581.764.995l.003.013a1.492 1.492 0 01-.205 1.295l.003-.005-7.017 12.178h5.129c.778 0 1.45.457 1.762 1.119l.005.011c.196.32.311.709.311 1.124 0 .386-.101.75-.278 1.065l.005-.012H8.509c-.455 0-.867-.185-1.165-.485a1.597 1.597 0 01-.484-1.147v-.045c0-.45.185-.855.484-1.146.296-.3.71-.485 1.165-.485h.046-.001 4.193l5.322-9.274-1.618-2.898a1.49 1.49 0 01-.199-1.302l-.003.01a1.8 1.8 0 01.76-1.003l.007-.005c.223-.148.498-.235.793-.235.163 0 .322.027.468.077l-.01-.004c.434.115.789.392 1.004.759l.005.008.725 1.29.723-1.293zm-8.629 21.611c-.251.36-.613.63-1.033.764l-.013.003a1.47 1.47 0 01-1.255-.165l.005.003a1.611 1.611 0 01-.765-.996l-.002-.012a1.82 1.82 0 01.165-1.3l-.005.01 1.21-2.017c.282-.101.609-.161.949-.161.926 0 1.75.44 2.271 1.123l.005.007-1.532 2.741zm19.436-7.74h.045c.455 0 .867.185 1.165.485.299.292.484.697.484 1.147v.023-.001.023c0 .45-.185.855-.484 1.147-.296.3-.71.485-1.165.485h-.046.001-2.338l1.613 2.741a1.687 1.687 0 01.118 1.303l.004-.011a1.8 1.8 0 01-.76 1.003l-.007.005a1.446 1.446 0 01-1.258.159l.01.003a1.648 1.648 0 01-1.003-.758l-.006-.009-6.048-10.563a4.697 4.697 0 01-.725-2.52c0-.307.028-.605.085-.897l-.005.03a3.754 3.754 0 011.205-2.173l.003-.003 4.839 8.386 4.273-.005zM20 .002h.129c3.641 0 7.048 1.003 9.96 2.75L30 2.703c3.04 1.792 5.507 4.259 7.247 7.204l.051.093C38.995 12.823 40 16.23 40 19.872v.135V20v.128c0 3.642-1.003 7.049-2.75 9.96l.048-.088c-1.791 3.04-4.258 5.507-7.203 7.247l-.094.051C27.178 38.995 23.771 40 20.13 40h-.135.007-.129a19.298 19.298 0 01-9.96-2.75l.088.048c-3.04-1.791-5.506-4.258-7.247-7.205L2.702 30C1.005 27.177 0 23.77 0 20.128v-.256c0-3.642 1.003-7.049 2.75-9.96L2.702 10C4.494 6.96 6.96 4.493 9.905 2.753L10 2.702C12.822 1.005 16.229 0 19.87 0h.135-.007v.002zM37.42 20v-.15c0-3.168-.866-6.135-2.376-8.675l.044.078c-1.557-2.646-3.712-4.788-6.288-6.285l-.083-.045c-2.475-1.468-5.455-2.336-8.639-2.336h-.125.007-.125c-3.165 0-6.128.868-8.662 2.381l.077-.043c-2.648 1.557-4.79 3.71-6.286 6.285l-.045.083c-1.47 2.475-2.339 5.459-2.339 8.644v.108-.005.125c0 3.165.868 6.128 2.382 8.662l-.043-.077a17.454 17.454 0 006.287 6.285l.083.045c2.475 1.47 5.458 2.338 8.644 2.338h.111-.005.125a16.84 16.84 0 008.662-2.381l-.076.043c2.65-1.557 4.793-3.712 6.291-6.288l.046-.084c1.47-2.468 2.338-5.445 2.338-8.623v-.092.005L37.42 20z" fill="#F2F5FF"/></svg>