<svg width="1070" height="1080" fill="none" xmlns="http://www.w3.org/2000/svg"><path fill="#0C0C0C" d="M786.679 1201.46l-49.525-177.21 174.321-48.717L961 1152.743zM663.786 765.45l-49.525-177.21 173.358-48.448 49.524 177.21zM226.924 179.408L177.399 2.198 350.757-46.25l49.524 177.21z"/><circle cx="130.892" cy="348.497" r="18" transform="rotate(-105.614 130.892 348.497)" fill="#0C0C0C"/><path fill="#0C0C0C" d="M200.263 894.449l-48.055-177.337 174.17-47.197 48.055 177.337zM716.451 40.238l-48.055-177.337 174.17-47.197L890.623-6.959zM498.827 1048.29l-49.525-177.21 173.358-48.448 49.524 177.21zm464.212-129.737l-49.525-177.21 174.321-48.717 49.525 177.21zM526.178 332.511l-49.525-177.21 174.321-48.717 49.525 177.21zM840.146 482.54l-49.525-177.21 173.358-48.448 49.524 177.21zm134.14-274.225l-49.525-177.21 174.321-48.717 49.525 177.21zM378.901 612.852l-48.055-177.337 174.17-47.197 48.055 177.337zm-30.317 477.428l-49.525-177.21 137.723-38.489 49.525 177.21zm465.175-130.007l-49.525-177.21 137.723-38.489 49.525 177.21zM376.898 374.231l-49.525-177.21 137.723-38.489 49.525 177.21zm313.005 150.298l-49.525-177.21 137.723-38.489 49.525 177.21zm135.103-274.494l-49.525-177.21 137.723-38.489 49.525 177.21zM228.797 653.527L180.742 476.19l138.07-37.415 48.054 177.338zm288.215 623.303l-49.525-177.21 258.11-72.133 49.525 177.21zm464.212-129.74l-49.525-177.21 258.11-72.133 49.525 177.21zM858.331 711.08l-49.525-177.21 258.11-72.133 49.525 177.21zM421.47 125.038l-49.525-177.21 258.11-72.133 49.525 177.21zm-26.136 716.551l-48.055-177.337 217.875-59.04 48.055 177.337zM261.906 1114.5l-49.525-177.21 56.823-15.88 49.525 177.21zm464.212-129.733l-49.525-177.21 56.823-15.88 49.525 177.21zM289.256 398.725l-49.525-177.21 56.823-15.88 49.525 177.21zm313.969 150.029L553.7 371.544l56.823-15.88 49.525 177.21zm134.14-274.225L687.84 97.319l56.823-15.88 49.525 177.21zM25.188 289.78l177.21-49.525 15.88 56.823-177.21 49.525zm29.876 106.905l177.21-49.525 15.88 56.822-177.21 49.526zm86.331 280.526L93.34 499.874l57.001-15.447 48.055 177.338zM17.651 262.814l-6.729-24.077L37.89 231.2l6.729 24.078zM6.729 227.449L0 203.372l26.967-7.537 6.729 24.078zm50.409 24.33l-6.729-24.077 26.004-7.268 6.729 24.078zm-10.922-35.365l-6.729-24.078 26.967-7.536 6.729 24.078zM91.81 242.09l-6.73-24.078 26.967-7.536 6.73 24.077zm-9.96-35.635l-6.728-24.077 26.003-7.267 6.73 24.077zm49.446 24.599l-6.729-24.077 26.967-7.537 6.729 24.078zm-10.922-35.366l-6.729-24.077 26.967-7.537 6.729 24.078zm47.52 25.138l-6.729-24.077 26.967-7.537 6.729 24.078zm-10.922-35.366l-6.729-24.077 26.967-7.537 6.729 24.078zm891.558 237.198l-49.525-177.21L1172.363 197l49.524 177.21z"/><path d="M761.5 82.5L786 170l35.5 106L968 238.5l65 204.5-114 39" stroke="#4D4949" stroke-width="5"/><path d="M755 27c-7.73 0-14 6.27-14 14 0 10.5 14 26 14 26s14-15.5 14-26c0-7.73-6.27-14-14-14zm0 19c-2.76 0-5-2.24-5-5s2.24-5 5-5 5 2.24 5 5-2.24 5-5 5z" fill="#4C4949"/></svg>